<svg width="133" height="39" viewBox="0 0 133 39" fill="none" xmlns="http://www.w3.org/2000/svg">
<path d="M11.8341 29.4772C9.16127 29.4772 6.35523 28.2304 4.77815 25.8706L4.60258 28.9453H0V2.23058H5.08388V12.3326C6.70636 10.2387 9.29143 9.17022 11.8341 9.17022C16.9619 9.17022 20.732 13.5332 20.732 19.3168C20.732 25.1003 16.9619 29.4772 11.8341 29.4772ZM10.2555 13.0044C7.27544 13.0044 4.86442 15.3642 4.86442 19.326C4.86442 23.2878 7.27544 25.6476 10.2555 25.6476C13.2356 25.6476 15.6482 23.2893 15.6482 19.326C15.6482 15.3627 13.2372 13.0044 10.2555 13.0044Z" fill="#22305D"/>
<path d="M34.0564 29.6552C27.9191 29.6552 23.4043 25.1585 23.4043 19.3257C23.4043 13.5376 27.9191 8.99773 34.0564 8.99773C40.1483 8.99773 44.6631 13.5376 44.6631 19.3257C44.6631 25.1585 40.1483 29.6552 34.0564 29.6552ZM34.0564 12.7812C30.6374 12.7812 28.4019 15.4531 28.4019 19.3257C28.4019 23.2444 30.6813 25.8703 34.0564 25.8703C37.4315 25.8703 39.6655 23.2444 39.6655 19.3257C39.6655 15.4531 37.43 12.7812 34.0564 12.7812Z" fill="#22305D"/>
<path d="M62.1508 28.9357V18.3018C62.1508 14.563 60.8794 13.3162 58.5562 13.3162C56.1452 13.3162 53.5162 15.5423 53.5162 18.2126V28.9357H48.4308V9.70951H53.0773L53.2968 13.2716C54.5681 10.8226 57.4165 9.17451 60.3104 9.17451C65.3504 9.17451 67.2347 12.7366 67.2347 17.5008V28.9357H62.1508Z" fill="#22305D"/>
<path d="M86.2991 28.9359L86.0811 25.3754C84.8098 27.8244 81.9175 29.4709 79.0675 29.4709C74.0276 29.4709 72.1417 25.9089 72.1417 21.1461V9.7097H77.2271V20.3498C77.2271 24.0902 78.4546 25.337 80.8202 25.337C83.2312 25.337 85.8617 23.1109 85.8617 20.4389V9.7097H90.9456V28.9359H86.2991Z" fill="#22305D"/>
<path d="M121.895 28.9357V18.1235C121.895 14.6506 120.974 13.3162 118.65 13.3162C116.327 13.3162 114.005 15.3147 114.005 18.2126V28.9357H108.92V18.1235C108.92 14.6506 108.044 13.3162 105.678 13.3162C103.355 13.3162 101.032 15.3147 101.032 18.2126V28.9357H95.9463V9.70951H100.588L100.808 13.2716C102.211 10.7334 104.752 9.17451 107.467 9.17451C111.018 9.17451 112.764 10.9117 113.521 13.493C115.231 10.778 117.685 9.17451 120.483 9.17451C125.523 9.17451 126.97 12.7366 126.97 17.5008V28.9357H121.895Z" fill="#22305D"/>
<path d="M35.6917 38.9661C34.2736 38.9661 33.0522 37.976 33.0522 36.3526C33.0522 34.7291 34.2736 33.7391 35.6917 33.7391C36.3395 33.7391 36.9964 33.9313 37.405 34.248V35.1704C36.9633 34.7704 36.391 34.5512 35.7992 34.5554C34.823 34.5554 34.101 35.2211 34.101 36.3464C34.101 37.4718 34.823 38.1359 35.7992 38.1359C36.3909 38.1395 36.963 37.9205 37.405 37.521V38.4434C36.9964 38.7755 36.3395 38.9661 35.6917 38.9661Z" fill="#F94015"/>
<path d="M48.7738 39C47.2603 39 46.0934 37.8916 46.0934 36.3604C46.0934 34.8291 47.2663 33.7207 48.7738 33.7207C50.2813 33.7207 51.43 34.8276 51.43 36.3604C51.43 37.8931 50.2752 39 48.7738 39ZM48.7738 34.5278C47.79 34.5278 47.1422 35.278 47.1422 36.3604C47.1422 37.4427 47.79 38.1913 48.7738 38.1913C49.7576 38.1913 50.3812 37.4427 50.3812 36.3604C50.3812 35.278 49.7425 34.5278 48.7738 34.5278Z" fill="#F94015"/>
<path d="M63.5553 38.8579L63.0543 37.628H61.0625L60.5631 38.8579H59.5944L61.6876 33.8553H62.4655L64.5633 38.8579H63.5553ZM62.0629 35.1021L61.3334 36.9177H62.7849L62.0629 35.1021Z" fill="#F94015"/>
<path d="M75.3603 38.9661C73.9422 38.9661 72.7208 37.976 72.7208 36.3526C72.7208 34.7291 73.9422 33.7391 75.3603 33.7391C76.0081 33.7391 76.6635 33.9313 77.0736 34.248V35.1704C76.6314 34.77 76.0586 34.5508 75.4663 34.5554C74.4916 34.5554 73.7696 35.2211 73.7696 36.3464C73.7696 37.4718 74.4916 38.1359 75.4663 38.1359C76.0585 38.1398 76.6311 37.9207 77.0736 37.521V38.4434C76.6635 38.7755 76.0081 38.9661 75.3603 38.9661Z" fill="#F94015"/>
<path d="M89.4019 38.8579V36.6502H87.0817V38.8579H86.0813V33.8553H87.0817V35.7924H89.4019V33.8553H90.4024V38.8517L89.4019 38.8579Z" fill="#F94015"/>
<path d="M99.5993 38.8579V33.8553H100.6V38.8517L99.5993 38.8579Z" fill="#F94015"/>
<path d="M113.267 38.8579L110.694 35.5602V38.8579H109.801V33.8553H110.497L113.07 37.153V33.8553H113.964V38.8517L113.267 38.8579Z" fill="#F94015"/>
<path d="M125.547 38.9993C124.128 38.9993 122.931 37.9754 122.931 36.3596C122.931 34.7439 124.178 33.7461 125.612 33.7461C126.26 33.7461 126.95 33.9383 127.358 34.255V35.1774C126.904 34.7712 126.317 34.5519 125.712 34.5625C124.685 34.5625 123.973 35.245 123.973 36.395C123.973 37.5188 124.67 38.2275 125.654 38.2275C125.983 38.2359 126.309 38.1642 126.605 38.0184V37.0437H125.736V36.2951H127.564V38.5012C126.933 38.8077 126.246 38.9774 125.547 38.9993Z" fill="#F94015"/>
<path d="M130.924 14.4189L132.989 1.01301C133.091 0.352898 132.455 -0.175163 131.834 0.0547034L119.274 4.70998C121.967 4.14826 124.955 4.82931 127.332 6.81432C129.704 8.79475 130.94 11.6327 130.924 14.4189Z" fill="#F94015"/>
</svg>
